<?xml version="1.0" standalone="no"?>
<!DOCTYPE svg PUBLIC "-//W3C//DTD SVG 20010904//EN"
 "http://www.w3.org/TR/2001/REC-SVG-20010904/DTD/svg10.dtd">
<svg version="1.0" xmlns="http://www.w3.org/2000/svg"
 width="500.000000pt" height="500.000000pt" viewBox="0 0 500.000000 500.000000"
 preserveAspectRatio="xMidYMid meet">
<metadata>
Created by potrace 1.14, written by Peter Selinger 2001-2017
</metadata>
<g transform="translate(0.000000,500.000000) scale(0.100000,-0.100000)"
fill="#000000" stroke="none">
<path d="M2247 4374 c-1 -1 -40 -4 -87 -7 -47 -4 -96 -9 -110 -11 -14 -3 -65
-12 -115 -21 -89 -15 -214 -58 -290 -99 -22 -12 -94 -57 -159 -101 -165 -111
-186 -124 -226 -135 -67 -18 -149 20 -150 70 0 8 14 35 30 60 16 25 30 50 30
55 0 6 -19 25 -42 43 -35 27 -50 32 -97 32 -113 0 -294 -123 -318 -216 -14
-56 -9 -83 26 -156 37 -75 103 -133 182 -161 70 -24 104 -18 214 33 118 56
176 94 315 205 63 51 135 105 159 121 24 16 49 32 55 36 40 27 153 69 220 83
124 25 299 13 406 -29 19 -8 40 -14 45 -15 6 -1 36 -11 67 -23 77 -28 190
-135 256 -243 128 -210 148 -258 186 -446 36 -177 41 -222 25 -250 -8 -16 -13
-77 -15 -189 -5 -347 -18 -424 -109 -670 -69 -184 -124 -336 -162 -444 -37
-106 -56 -139 -107 -194 -37 -40 -61 -51 -135 -59 -74 -7 -105 -7 -236 1 -243
16 -327 28 -525 75 -204 48 -358 58 -450 31 -142 -43 -233 -113 -255 -195 -13
-53 -12 -126 4 -168 17 -43 72 -97 130 -126 86 -43 151 -54 218 -37 93 25 120
54 101 109 -14 37 -4 67 32 104 40 41 124 72 209 79 164 12 239 9 446 -17 117
-15 134 -18 195 -35 30 -9 64 -18 74 -20 28 -5 87 -25 121 -40 56 -25 163 -62
242 -85 102 -29 222 -28 260 3 16 13 3 38 -52 97 -79 86 -124 199 -125 309 0
88 215 692 246 692 6 0 14 -15 17 -32 11 -72 16 -98 26 -135 5 -21 12 -60 16
-86 3 -27 8 -59 11 -70 10 -49 34 -214 39 -262 16 -168 24 -200 44 -180 5 6
49 87 96 180 181 352 234 452 285 540 29 50 54 92 56 94 12 14 12 -15 -1 -90
-7 -46 -16 -116 -20 -154 -3 -39 -8 -83 -10 -100 -5 -40 -19 -333 -17 -365 0
-14 4 -90 7 -170 4 -80 7 -152 7 -160 0 -45 41 -245 63 -309 32 -90 46 -118
97 -193 94 -139 182 -190 329 -190 110 0 183 36 284 141 53 54 73 85 79 123 3
21 -66 239 -84 263 -4 6 -15 33 -24 62 -9 28 -28 63 -42 77 -47 46 -65 44
-256 -23 -32 -11 -67 -18 -78 -16 -21 4 -78 57 -104 97 -34 52 -66 189 -95
400 -18 132 -21 424 -7 523 8 55 45 164 99 295 19 47 45 117 57 155 12 39 28
79 35 90 16 27 97 66 143 71 151 14 164 17 197 45 32 28 62 104 45 114 -4 3
-32 7 -61 10 -99 11 -118 13 -151 20 -18 3 -44 11 -58 16 -35 13 -198 36 -239
34 -51 -3 -76 -51 -141 -265 -55 -180 -86 -266 -114 -315 -31 -53 -123 -165
-135 -165 -8 0 -30 67 -72 210 -11 36 -21 74 -23 85 -2 11 -13 56 -24 100 -27
105 -35 162 -37 265 -2 119 20 184 80 239 20 18 40 43 45 57 13 33 -19 135
-78 248 -48 92 -63 109 -397 450 -107 110 -202 164 -340 195 -44 10 -87 19
-95 19 -8 1 -35 4 -60 7 -43 6 -120 11 -123 9z"/>
<path d="M2128 3995 c-54 -50 -60 -53 -95 -48 -21 3 -55 12 -75 19 -56 19
-171 11 -249 -19 -113 -43 -324 -184 -369 -247 -25 -36 -50 -193 -47 -301 3
-72 8 -94 33 -142 32 -62 119 -166 203 -240 l53 -49 62 7 c80 8 255 8 292 -1
78 -19 172 -89 224 -169 34 -53 44 -200 18 -278 -23 -69 -22 -79 8 -108 47
-44 68 -97 68 -174 0 -64 -3 -75 -39 -130 -78 -120 -136 -161 -252 -175 -63
-8 -162 -4 -193 7 -8 3 -24 8 -35 10 -57 11 -139 88 -173 163 -49 109 -29 201
66 302 54 58 107 88 155 88 39 0 96 -50 128 -111 36 -72 43 -74 108 -29 83 56
145 139 154 206 6 46 -22 175 -48 219 -74 129 -224 184 -437 161 -106 -11
-232 -72 -334 -162 -94 -83 -151 -172 -174 -274 -7 -30 -16 -66 -19 -80 -8
-29 -6 -183 3 -220 19 -81 72 -164 163 -257 153 -155 284 -206 533 -207 159 0
260 22 310 68 14 13 46 37 72 55 77 51 134 135 213 312 10 24 28 57 40 74 64
93 76 211 35 347 -36 123 -178 305 -325 418 -27 21 -102 78 -165 126 -99 75
-253 199 -336 269 -62 53 -78 162 -35 246 52 100 133 147 234 134 112 -14 156
-53 213 -188 32 -76 65 -117 95 -117 11 0 36 7 55 15 l35 15 -6 52 c-3 29 -10
76 -15 103 -25 138 -25 149 -9 257 15 91 7 108 -50 108 -30 -1 -46 -10 -93
-55z"/>
<path d="M1700 1373 c-140 -50 -263 -177 -285 -295 -6 -29 -3 -40 14 -57 12
-12 29 -22 39 -22 60 -5 78 -5 88 -2 6 2 14 27 17 54 8 63 44 143 86 191 28
32 129 94 138 84 8 -7 -32 -97 -157 -352 -129 -265 -133 -272 -168 -283 -37
-11 -65 -31 -91 -64 -12 -15 -8 -19 35 -37 41 -18 49 -19 62 -6 12 12 19 12
49 -1 19 -8 36 -13 38 -11 1 2 10 18 19 35 9 18 24 33 34 34 9 0 37 2 62 3 44
2 158 -14 224 -33 33 -9 35 -8 32 12 -3 12 -5 25 -5 29 -1 7 -68 28 -101 33
-8 1 -35 5 -60 9 -25 3 -69 7 -97 9 -29 1 -53 4 -53 5 0 2 6 16 14 30 60 114
219 455 229 489 14 55 -6 121 -43 140 -25 13 -92 16 -120 6z"/>
<path d="M3065 1097 c-15 -23 -18 -24 -42 -12 -29 15 -78 12 -100 -7 -28 -23
-74 -99 -92 -151 -46 -138 -14 -221 81 -209 34 4 124 92 130 127 3 14 2 25 -3
25 -4 0 -33 -27 -65 -60 -31 -33 -65 -60 -75 -60 -16 0 -18 6 -14 44 10 97 94
246 139 246 14 0 15 -4 6 -20 -8 -14 -8 -26 0 -41 11 -19 13 -20 30 -4 10 9
28 36 41 60 l24 45 -22 21 -21 21 -17 -25z"/>
<path d="M1944 1086 c-106 -48 -198 -247 -149 -322 32 -49 109 -63 175 -31 51
25 109 104 94 128 -10 17 -22 9 -44 -26 -40 -65 -120 -102 -140 -65 -11 21
-13 60 -4 84 5 14 9 14 36 0 38 -20 67 -12 106 27 60 61 88 153 60 192 -18 23
-95 31 -134 13z m108 -51 c-6 -32 -40 -73 -88 -106 -62 -42 -79 -37 -55 17 29
63 85 116 118 112 22 -2 27 -8 25 -23z"/>
<path d="M2245 1081 c-69 -42 -132 -152 -141 -248 -6 -68 9 -104 46 -113 43
-11 79 16 127 98 14 23 27 42 29 42 8 0 -46 -131 -72 -175 -43 -74 -80 -89
-102 -41 -5 12 -18 23 -27 23 -25 0 -10 -46 26 -79 33 -31 55 -34 102 -14 63
26 98 83 177 291 21 55 45 117 54 137 15 36 15 38 -7 62 -32 36 -67 44 -74 16
-5 -19 -7 -19 -22 -6 -28 25 -82 29 -116 7z m125 -39 c0 -10 -113 -193 -148
-239 -13 -18 -28 -30 -33 -28 -21 13 25 133 78 203 34 45 103 88 103 64z"/>
<path d="M2589 1083 c-33 -20 -86 -105 -105 -169 -29 -98 -11 -158 53 -170 30
-6 33 -3 63 50 18 31 33 56 35 56 2 0 2 -20 -1 -44 -11 -82 36 -117 87 -66 16
16 29 36 29 46 0 14 -3 15 -12 6 -44 -44 -30 24 32 156 28 58 50 108 50 112 0
10 -62 40 -72 34 -8 -5 -94 -137 -148 -226 -37 -62 -50 -72 -49 -35 1 60 63
163 111 185 21 9 38 20 38 23 0 9 -40 49 -50 49 -4 0 -14 2 -22 5 -7 2 -25 -3
-39 -12z"/>
<path d="M3173 1042 c-37 -82 -73 -179 -79 -216 -7 -44 20 -77 65 -79 30 -2
38 4 62 38 15 22 39 64 54 92 15 29 29 53 31 53 3 0 3 -3 1 -7 -2 -5 -22 -46
-45 -93 -46 -94 -130 -204 -160 -212 -24 -7 -35 0 -51 29 -15 29 -44 20 -35
-11 12 -43 51 -71 97 -71 99 0 189 114 278 353 45 119 47 134 17 162 -32 30
-44 25 -74 -27 -15 -27 -47 -84 -72 -128 -49 -87 -92 -149 -98 -142 -6 6 29
103 71 194 41 90 39 106 -11 116 -23 4 -28 -1 -51 -51z"/>
</g>
</svg>
