<svg id="Layer_1" data-name="Layer 1" xmlns="http://www.w3.org/2000/svg" viewBox="0 0 1080 1080"><path d="M978,438H348.3L612.14,174.15A102,102,0,0,0,467.86,29.88l-438,438c-1.2,1.2-2.37,2.42-3.5,3.68-.51.56-1,1.14-1.49,1.71s-1.19,1.36-1.77,2.06-1.21,1.54-1.81,2.31c-.41.53-.83,1.05-1.24,1.59-.64.87-1.24,1.74-1.85,2.62-.34.48-.68.95-1,1.43-.61.91-1.19,1.83-1.77,2.75l-.91,1.46c-.54.9-1.06,1.82-1.58,2.75-.3.53-.6,1.06-.89,1.61-.47.87-.91,1.75-1.36,2.63-.31.63-.62,1.25-.92,1.88-.38.8-.74,1.62-1.1,2.43s-.65,1.46-1,2.2-.58,1.46-.86,2.19-.65,1.69-1,2.55c-.23.64-.44,1.28-.65,1.92-.32,1-.64,1.91-.93,2.88-.17.57-.33,1.14-.49,1.71-.29,1-.58,2.07-.84,3.12-.13.54-.25,1.08-.37,1.61-.25,1.08-.5,2.16-.71,3.25-.11.55-.2,1.1-.3,1.65-.19,1.08-.38,2.15-.54,3.24-.1.63-.16,1.27-.24,1.9-.13,1-.27,2-.37,3-.08.85-.13,1.69-.19,2.54S.17,534.14.13,535C.05,536.6,0,538.24,0,539.89v.23c0,1.64.05,3.28.13,4.92,0,.82.11,1.62.17,2.43s.11,1.69.19,2.54c.1,1,.24,2,.37,3,.08.64.14,1.27.24,1.9.16,1.09.35,2.16.54,3.24.1.55.19,1.1.3,1.65.21,1.09.46,2.17.71,3.25.12.53.24,1.07.37,1.61.26,1.05.55,2.08.84,3.11.16.58.32,1.15.49,1.72.29,1,.61,1.92.93,2.88.21.64.42,1.28.65,1.92.3.86.63,1.71,1,2.55s.56,1.46.86,2.19.63,1.46,1,2.19.72,1.64,1.1,2.45c.3.62.61,1.24.92,1.86.44.88.89,1.77,1.36,2.65.29.53.59,1.06.89,1.59.52.93,1,1.85,1.59,2.77.29.48.59,1,.89,1.43.58.93,1.17,1.86,1.78,2.78.32.47.65.93,1,1.39.62.89,1.24,1.78,1.89,2.65.39.53.8,1,1.2,1.55.61.79,1.21,1.58,1.85,2.36s1.12,1.31,1.69,2,1,1.22,1.56,1.81q1.7,1.86,3.46,3.63l0,0,438,438A102,102,0,0,0,612.14,905.85L348.3,642H978a102,102,0,0,0,0-204Z"/></svg>