<?xml version="1.0" encoding="UTF-8"?><svg id="a" xmlns="http://www.w3.org/2000/svg" viewBox="0 0 1056.3 1040.1"><defs><style>.b{fill:none;stroke:#000;stroke-miterlimit:10;stroke-width:23px;}</style></defs><g><path d="M.23,533.41c-2.25-35.88,11.86-59.71,36.31-61.24,16.91-1.06,31.06,8.61,36.92,25.22,2.62-20.36,17.59-34.14,38.39-35.45,27.2-1.71,45.83,20.99,48.19,58.7l4.91,78.39-159.98,10.03L.23,533.41Zm66.2,31.18l-2.06-32.91c-.75-11.88-7.62-19.03-17.9-18.38-10.28,.65-15.75,8.56-15.01,20.44l2.06,32.91,32.91-2.06Zm64.68-4.05l-2.06-32.91c-.95-15.08-8.16-24.04-19.59-23.32-10.74,.67-16.78,10.46-15.84,25.54l2.06,32.91,35.42-2.22Z"/><path d="M153.76,338.43l-.48,1.04-12.87,28.11,41.02,18.78-16.97,37.06L18.71,356.68l29.85-65.17c17.64-38.52,46.07-52.2,78.55-37.32,22.28,10.2,34.02,26.91,34.74,47.9l62.11-8.58-19.26,42.06-50.93,2.87Zm-29.63-12.31c7.34-16.03,3.51-29.12-11.89-36.18-15.2-6.96-27.19-1.12-34.54,14.91l-12.87,28.11,46.43,21.26,12.87-28.11Z"/><path d="M202.64,141.08l19.56,25.11,60.34-47,19.7,25.29-60.34,47,19.84,25.47,68.83-53.62,19.7,25.29-100.98,78.67-98.51-126.45L249.78,63.71l19.7,25.29-66.84,52.07Z"/><path d="M449.88,115.01l-1.13,.2-30.42,5.52,8.06,44.39-40.11,7.28L357.65,14.69,428.17,1.88c41.68-7.57,69.17,7.92,75.55,43.07,4.38,24.11-2.61,43.3-19.41,55.89l42.57,46.03-45.51,8.27-31.49-40.13Zm-6.86-31.34c17.35-3.15,25.89-13.78,22.86-30.45-2.99-16.45-14.64-22.94-31.99-19.79l-30.42,5.52,9.13,50.24,30.42-5.52Z"/></g><g><path d="M435.32,1031.13l25.78-100.96-59.26,75.78-25.72-6.63-15.25-94.98-26,100.9-35.26-9.09,40.06-155.45,43.24,11.14,18.3,103.33,65.96-81.61,43.02,11.09-40.06,155.45-34.82-8.97Z"/><path d="M614.2,996.77l-3.36,31.59-40.38,11.2,23.79-172.96,40.38-11.2,107.95,136.41-41.93,11.63-18.93-25.41-67.53,18.73Zm9.86-96.37l-6.65,63.4,44.58-12.37-37.92-51.03Z"/><path d="M810.95,944.44l-95.3-128.9,32.78-24.23,95.3,128.9-32.78,24.23Z"/><path d="M948.37,749.3l27.6,20.06-63.95,87.99-129.67-94.24,23.96-32.97,102.07,74.18,39.98-55.02Z"/></g><path d="M1053.52,358.48c-36.63-12.07-74.7-17.41-112.92-21.67-36.47-4.06-73.11-10.24-109.9-6.08-33.92,3.83-65.48,16.46-93.26,36.18-30.9,21.94-53.47,52.86-83.59,75.85-13.14,10.03-27.83,17.78-43.24,23.95-14.61-20.47-31.78-38.88-51.08-54.98-2.46-2.05-5.86-.91-7.28,1.68-1.88,3.44-2.72,6.92-3.4,10.68-16.44-10.36-33.49-18.09-46.53-32.92-.81-.92-1.51-1.45-2.65-1.85,12.55-21.41,28.95-40.27,47.05-56.9,21.42-19.68,44.49-35.26,70.36-48.15,27.29-13.6,54.6-24.75,79.51-43.45,23.46-17.62,38.65-44.67,57.49-66.99,2.46-2.92,.18-7.13-3.13-7.5-20.4-2.25-39.18,4.45-58.99,7.49-21.68,3.33-43.53,5.59-65.25,8.19-38.78,4.64-79.1,6.07-115.87,19.71-33.14,12.3-59.17,34.5-74.74,66.04-14.49,29.35-16.73,62.01-20.57,93.96-1.84,15.31-3.61,30.8-7.07,45.85-7.72,1.65-15.06,4-22.22,7.4-5.19,2.47-10.01,5.58-14.72,8.86-4,2.78-7.91,5.02-7.71,10.4,.1,2.73,2.55,4.22,5.09,4.29,1.48,.04,3.01,0,4.47,.14-15.5,11.8-32.36,20.59-44.51,36.32-2.26,2.92-.2,8.37,4.13,7.58,5.11-.94,10.3-2.67,15.36-3.98-3.13,1.91-6.47,3.4-9.28,5.85-9.74,8.52-16.53,19.57-27.22,27.11-4.39,3.1-3.27,8.59,2.24,9.09,1.53,.14,3.16-.05,4.67,.1-.34,4.14-1.15,7.63-1.9,11.84-.75,4.21,2.81,8.88,7.16,5.78,.42-.3,.76-.7,1.19-1-.74,7.75-.97,15.21-.77,23.08,.12,4.6,.57,9.65,1.54,14.22-6.4-1.35-12.61-1.95-19.18-1.1-12.73,1.63-23.53,5.77-32.42,15.26-2.3,2.46-.75,5.69,1.73,7.21,1.1,.68,2.33,1.31,3.32,2.09-13.2,13.81-24.97,27.57-32.14,45.5-1.84,4.59,2.99,7.77,7.04,5.55,2.15-1.18,4.37-2.67,6.54-3.8-3.31,8.28-5.64,16.47-5.61,25.48,.01,3.78,4.6,4.97,7.42,3.18,1.59-1,2.96-2.12,4.54-3.06,.43,4.79,1.1,9.43,2.56,14.03-.03,.62-.31,1.27-.28,1.89,.33,5.37,5.89,7.1,9.06,2.63,1.69-1.49,2.02-3.1,1.25-5.2-.02-.07-.06-.14-.09-.21,4.55,6.47,9.62,10.99,17.1,13.74-.03,.49-.15,.94-.08,1.46,2.61,18.6,3.96,36.33,14.76,52.43,7.19,10.72,18.13,18.34,30.18,23.04,25.61,9.98,53.41,7.24,79.92,4.61,27.25-2.71,52.99-5.83,80.16-1.6,26.13,4.06,52.19,5.14,78.83,1.71,30.99-3.98,62.47-14.74,80.23-42.24,2.51,1.41,4.84,3.01,7.11,4.8,2.27,1.79,6.33,1.09,7.19-1.82,9.92-33.47-10.48-62.15-36.98-80.75,4.81-2.18,9.89-3.91,14.86-5.75,3.83-1.41,3.84-7.27,.11-8.54-16.07-5.45-30.51-3.1-46.57,.73,13.84-14.74,25.19-29.82,31.49-49.31,5.95-18.41,5.82-36.57,3.73-55.61,5.05-1.92,10.54-2.88,15.82-3.95,9.76-1.98,19.53-3.53,29.31-5.15,19.69-3.26,39.58-5.82,59.26-9.4,38.84-7.07,77.47-16.37,112.88-34.6,36.07-18.57,65.87-47.02,101.66-66.17,23.36-12.5,48.56-20.14,71.65-33.75,9.5-5.59,18.7-12.85,23.52-23.32,1.03-2.23,.18-5.36-2.35-6.19Z"/><path class="b" d="M278.01,887.89c-88.58-56.04-156.06-142.43-187.83-244.55"/><path class="b" d="M961.51,486.85c.42,7.9,.63,15.86,.63,23.86,0,75.89-18.96,147.36-52.39,209.92"/><path class="b" d="M545.87,65.68c41.65,2.74,81.74,11.2,119.48,24.6,43.3,15.37,83.51,37.23,119.48,64.42,41.21,31.15,76.83,69.29,105.12,112.65"/></svg>